<svg viewBox="0 0 24 24" fill="currentColor" xmlns="http://www.w3.org/2000/svg"><path d="M2.088 14.135a.46.46 0 0 1 .075.514 10.038 10.038 0 0 0 7.188 7.188.46.46 0 0 1 .514.075l1.707 1.707a.46.46 0 0 1-.227.775A11.96 11.96 0 0 1 .38 13.43a.46.46 0 0 1 .775-.227l.933.933zm-.723-3.663a.46.46 0 0 1-.126.48l-.858.858a.46.46 0 0 1-.774-.2A11.96 11.96 0 0 1 9.247.37a.46.46 0 0 1 .2.774l-.858.858a.46.46 0 0 1-.48.126 10.037 10.037 0 0 0-5.744 8.344zm5.152 11.24a.46.46 0 0 1 .48-.126 10.037 10.037 0 0 0 8.344-5.744.46.46 0 0 1 .126-.48l.858-.858a.46.46 0 0 1 .774.2 11.96 11.96 0 0 1-9.64 9.64.46.46 0 0 1-.2-.774l.258-.258.258-.258-.258.258-.258.258zM23.605 10.863a.46.46 0 0 1-.774.226l-.933-.933a.46.46 0 0 1-.075-.514 10.037 10.037 0 0 0-7.188-7.188.46.46 0 0 1-.514-.075L12.414.672a.46.46 0 0 1 .226-.774 11.96 11.96 0 0 1 10.965 10.965z"/></svg>