<svg viewBox="0 0 24 24" fill="currentColor" xmlns="http://www.w3.org/2000/svg"><path d="M4.459 4.208c.746.606 1.026.56 2.428.466l13.215-.793c.28 0 .047-.28-.046-.326L18.09 2.15c-.42-.326-.98-.7-2.055-.607L3.01 2.62c-.466.046-.56.28-.373.466l1.822 1.122zm.793 3.358v13.895c0 .746.373 1.026 1.213.98l14.523-.84c.84-.046.933-.56.933-1.166V6.63c0-.606-.233-.933-.746-.886l-15.177.886c-.56.046-.746.326-.746.933zm14.337.7c.093.42 0 .84-.42.886l-.7.14v10.264c-.607.327-1.166.514-1.633.514-.746 0-.933-.234-1.493-.933l-4.573-7.186v6.953l1.446.327s0 .84-1.166.84l-3.218.187c-.093-.187 0-.653.327-.726l.84-.234V9.854L7.822 9.76c-.093-.42.14-1.026.793-1.073l3.451-.233 4.76 7.28v-6.44l-1.213-.14c-.093-.513.28-.886.746-.933l3.218-.186z" fill-rule="evenodd"/></svg>