<svg viewBox="0 0 24 24" xmlns="http://www.w3.org/2000/svg"><path d="M17.128 0a10.134 10.134 0 0 0-2.755.403l-.063.02A10.922 10.922 0 0 0 12.6.258C11.422.238 10.41.524 9.594 1 8.79.721 7.122.24 5.364.336 4.14.403 2.804.775 1.814 1.82.827 2.865.305 4.482.415 6.682c.03.607.203 1.597.49 2.879s.69 2.783 1.193 4.152c.503 1.37 1.054 2.6 1.915 3.436.43.419 1.022.771 1.72.742.49-.02.933-.235 1.315-.552.186.245.385.352.385.352l.046.026c.55.306 1.09.399 1.594.36a2.108 2.108 0 0 0 1.197-.5c.012.472.024.916.028 1.19.004.398.065 1.007.301 1.608.236.6.676 1.229 1.454 1.481.324.105.652.157.962.157.803 0 1.479-.328 1.998-.73a4.31 4.31 0 0 0 .88-.86c.16-.223.253-.378.32-.5l.04-.075c.18-.357.297-.473.494-.578a1.68 1.68 0 0 1 .1-.048 3.69 3.69 0 0 0 1.86-1.38 5.882 5.882 0 0 0 .771-1.785c.382-1.293.594-2.946.454-5.074a12.528 12.528 0 0 0-.03-.345c.057-.064.112-.13.166-.2.454-.584.76-1.32.912-2.18.152-.863.145-1.85-.089-2.918C21.98 1.996 20.038.354 17.128 0z" fill="#336791"/><path d="M16.942.553c-2.567-.088-4.166.784-5.06 1.584-.25-.136-.57-.28-.952-.398C10.04 1.467 8.84 1.165 7.37 1.164c-.482 0-.98.03-1.494.086-1.974.213-3.07.965-3.706 1.793C1.534 3.871 1.23 4.86 1.193 5.712c-.037.851.126 1.573.228 1.906l.013.04c.015.056.139.604.378 1.453.24.849.594 1.996 1.021 3.072.214.538.446 1.058.712 1.5.267.443.55.833.964 1.104.208.136.457.232.728.248.222.013.43-.03.617-.098a11.43 11.43 0 0 0 .209 2.138c.15.625.446 1.296 1.062 1.668.323.195.727.31 1.2.225.345-.062.657-.217.91-.414l.007-.006c.007.414.02.803.032 1.063.014.3.052.726.225 1.17.173.446.506.946 1.118 1.144.265.086.527.128.774.128.693 0 1.277-.283 1.735-.642.458-.36.806-.786 1.065-1.105l.054-.066c.17-.212.264-.33.378-.418.114-.087.283-.173.596-.312l.031-.014a3.04 3.04 0 0 0 1.536-1.13c.328-.482.554-1.045.715-1.635.322-1.178.42-2.502.383-3.824.233-.14.445-.296.634-.47.38-.35.664-.79.85-1.206.374-.835.424-1.682.334-2.386-.09-.703-.298-1.265-.39-1.49a.46.46 0 0 0-.013-.033c.06-.225.104-.48.14-.77.075-.594.094-1.35-.07-2.204-.163-.854-.505-1.81-1.187-2.718C20.23 1.382 18.882.62 16.942.553z" fill="#fff"/><path d="M16.922 1.297c-2.384-.082-3.803.727-4.56 1.469-.81-.396-1.85-.682-3.124-.682-.457 0-.935.028-1.432.084-1.788.194-2.725.852-3.262 1.56-.536.707-.77 1.528-.802 2.256-.032.729.1 1.36.2 1.684.032.105.162.611.398 1.443.236.832.587 1.968 1.006 3.025.21.529.437 1.038.695 1.466.257.428.518.772.86.996l.002.002c.12.079.278.143.445.152.111.006.217-.014.31-.049l.048-.02c-.075.396-.11.88-.11 1.37 0 .416.036.835.11 1.198.083.403.222.802.495 1.1.06.066.13.125.207.175.25.168.563.244.907.183.3-.054.555-.185.771-.358.217-.173.393-.388.55-.612.044-.064.08-.122.118-.182-.001.21.002.423.01.63.01.29.048.684.21 1.1.162.417.465.862 1.024 1.043.21.068.425.101.631.101.606 0 1.102-.244 1.493-.552.39-.308.695-.688.94-1.003l.052-.064c.187-.234.32-.38.472-.497.152-.117.347-.215.694-.369l.018-.008c.483-.213.866-.53 1.15-.92.285-.39.476-.837.618-1.34.283-1.005.37-2.222.34-3.484.319-.156.61-.365.857-.593.36-.332.622-.733.789-1.107.335-.749.373-1.49.293-2.113-.08-.623-.27-1.13-.358-1.347-.16-.57-.5-1.423-1.072-2.205-.57-.782-1.394-1.498-2.558-1.793a5.177 5.177 0 0 0-1.326-.176z" fill="#336791"/></svg>