<svg viewBox="0 0 24 24" fill="currentColor" xmlns="http://www.w3.org/2000/svg"><path d="M13.91 2.505c-.873-1.448-2.972-1.448-3.844 0L6.2 9.2a8.007 8.007 0 0 1 4.048 6.916h-2.11a5.907 5.907 0 0 0-2.98-5.08L2.508 15.2c-.873 1.448.218 3.258 1.922 3.258h1.14a1.009 1.009 0 0 0 0-2.018H4.43c-.049 0-.082-.022-.103-.058a.102.102 0 0 1 0-.118l5.2-8.862a.107.107 0 0 1 .206 0l2.05 3.507a10.021 10.021 0 0 1 2.078-1.216L11.988 6.26l2.776 4.715a7.976 7.976 0 0 1 2.102 4.573h-2.016a5.94 5.94 0 0 0-1.122-2.984 5.914 5.914 0 0 0-2.536-2.076l-.115-.058a7.985 7.985 0 0 0-1.03 5.118h-1.047c0-2.12-.82-4.15-2.29-5.657l-.115.198a7.934 7.934 0 0 1 2.405 5.459H8.152a9.928 9.928 0 0 0-2.868-6.423l-.58.99c1.743 1.7 2.78 3.963 2.93 6.363a.975.975 0 0 0 .968.93h4.198c.006.044.018.088.018.134a1.01 1.01 0 0 1-1.009 1.009h-1.14a.1.1 0 0 1-.083-.045.1.1 0 0 1 0-.118l.478-.817a1.011 1.011 0 0 0-1.746-1.018l-.479.817c-.872 1.448.22 3.258 1.923 3.258h1.14c1.685 0 3.054-1.37 3.054-3.054 0-.184-.028-.36-.064-.534h2.476c.593 0 1.12-.317 1.42-.813.3-.496.3-1.13 0-1.627L13.91 2.505z"/></svg>