<svg viewBox="0 0 24 24" fill="currentColor" xmlns="http://www.w3.org/2000/svg"><path d="M21.678 2.32c-1.456-1.456-3.69-1.263-6.382.602-1.97 1.365-4.075 3.588-5.859 6.096-.53-.165-1.106-.15-1.656.074-.833.34-1.414 1.1-1.551 1.967a5.11 5.11 0 0 0-.055.394c-.564 1.103-.986 2.16-1.262 3.132-.592 2.084-.492 3.69.343 4.525.506.506 1.233.76 2.122.76.76 0 1.637-.189 2.611-.569C12.56 18.21 15.5 16.324 17.878 13.9c2.413-2.46 4.284-5.428 5.264-7.936.674-1.725.83-3.169.464-4.167a2.468 2.468 0 0 0-.625-.958c-.414-.377-.854-.497-1.303-.52zM5.83 19.104c-.542-.542-.588-1.726-.128-3.346.187-.66.446-1.37.767-2.11.023.303.08.603.17.89.303 1.008.936 1.82 1.688 2.343-.893.41-1.662.623-2.17.623-.16 0-.257-.022-.327-.09v-.31z"/></svg>