<svg viewBox="0 0 24 24" fill="#E44332" xmlns="http://www.w3.org/2000/svg"><path d="M21 0H3C1.35 0 0 1.35 0 3v18c0 1.65 1.35 3 3 3h18c1.65 0 3-1.35 3-3V3c0-1.65-1.35-3-3-3zM5.07 16.14l1.72-1.05c.107-.065.24-.065.348 0l1.245.76 3.457-2.112c.107-.065.24-.065.347 0l1.72 1.05c.133.082.133.28 0 .36l-5.176 3.163c-.107.066-.24.066-.348 0L5.07 16.5c-.132-.08-.132-.278 0-.36zm0-4.17l1.72-1.05c.107-.065.24-.065.348 0l1.245.76 3.457-2.112c.107-.065.24-.065.347 0l1.72 1.05c.133.082.133.28 0 .36l-5.176 3.163c-.107.066-.24.066-.348 0L5.07 12.33c-.132-.08-.132-.278 0-.36zm0-4.17l1.72-1.05c.107-.065.24-.065.348 0l1.245.76L11.84 5.4c.107-.065.24-.065.347 0l1.72 1.05c.133.082.133.28 0 .36L8.73 9.973c-.107.066-.24.066-.348 0L5.07 8.16c-.132-.08-.132-.278 0-.36z"/></svg>